REM DIRINDEX 1\2,1\3,1\4,1\5
REM DIRNAME "folder01","folder02","folder03","folder04","folder05"
TITLE ""
FILE "1Q_t_1778-1787.mp3" MP3
  TRACK 01 AUDIO
    TITLE "3:cjc172_6330"
    INDEX 01 00:00:00
  TRACK 02 AUDIO
    TITLE "0:"
    INDEX 01 00:01:25
  TRACK 03 AUDIO
    TITLE "4:cjc172_6331"
    INDEX 01 00:01:35
  TRACK 04 AUDIO
    TITLE "0:"
    INDEX 01 00:04:32
  TRACK 05 AUDIO
    TITLE "5:cjc172_6332"
    INDEX 01 00:04:39
  TRACK 06 AUDIO
    TITLE "0:"
    INDEX 01 00:09:74
  TRACK 07 AUDIO
    TITLE "3:cjc172_6333"
    INDEX 01 00:10:42
  TRACK 08 AUDIO
    TITLE "0:"
    INDEX 01 00:11:47
  TRACK 09 AUDIO
    TITLE "4:cjc172_6334"
    INDEX 01 00:11:57
  TRACK 10 AUDIO
    TITLE "0:"
    INDEX 01 00:14:18
  TRACK 11 AUDIO
    TITLE "5:cjc172_6335"
    INDEX 01 00:14:26
  TRACK 12 AUDIO
    TITLE "0:"
    INDEX 01 00:18:63
  TRACK 13 AUDIO
    TITLE "3:cjc172_6336"
    INDEX 01 00:19:35
  TRACK 14 AUDIO
    TITLE "0:"
    INDEX 01 00:20:46
  TRACK 15 AUDIO
    TITLE "4:cjc172_6337"
    INDEX 01 00:20:58
  TRACK 16 AUDIO
    TITLE "0:"
    INDEX 01 00:22:73
  TRACK 17 AUDIO
    TITLE "5:cjc172_6338"
    INDEX 01 00:23:07
  TRACK 18 AUDIO
    TITLE "0:"
    INDEX 01 00:27:03
  TRACK 19 AUDIO
    TITLE "3:cjc172_6339"
    INDEX 01 00:27:52
  TRACK 20 AUDIO
    TITLE "0:"
    INDEX 01 00:28:56
  TRACK 21 AUDIO
    TITLE "4:cjc172_6340"
    INDEX 01 00:28:67
  TRACK 22 AUDIO
    TITLE "0:"
    INDEX 01 00:31:21
  TRACK 23 AUDIO
    TITLE "5:cjc172_6341"
    INDEX 01 00:31:30
  TRACK 24 AUDIO
    TITLE "0:"
    INDEX 01 00:35:30
  TRACK 25 AUDIO
    TITLE "3:cjc172_6342"
    INDEX 01 00:36:02
  TRACK 26 AUDIO
    TITLE "0:"
    INDEX 01 00:37:27
  TRACK 27 AUDIO
    TITLE "4:cjc172_6343"
    INDEX 01 00:37:41
  TRACK 28 AUDIO
    TITLE "0:"
    INDEX 01 00:38:70
  TRACK 29 AUDIO
    TITLE "5:cjc172_6344"
    INDEX 01 00:39:04
  TRACK 30 AUDIO
    TITLE "0:"
    INDEX 01 00:45:52
  TRACK 31 AUDIO
    TITLE "3:cjc172_6345"
    INDEX 01 00:46:22
  TRACK 32 AUDIO
    TITLE "0:"
    INDEX 01 00:47:33
  TRACK 33 AUDIO
    TITLE "4:cjc172_6346"
    INDEX 01 00:47:45
  TRACK 34 AUDIO
    TITLE "0:"
    INDEX 01 00:51:53
  TRACK 35 AUDIO
    TITLE "5:cjc172_6347"
    INDEX 01 00:51:63
  TRACK 36 AUDIO
    TITLE "0:"
    INDEX 01 00:58:08
  TRACK 37 AUDIO
    TITLE "3:cjc172_6348"
    INDEX 01 00:58:55
  TRACK 38 AUDIO
    TITLE "0:"
    INDEX 01 00:59:58
  TRACK 39 AUDIO
    TITLE "4:cjc172_6349"
    INDEX 01 00:59:68
  TRACK 40 AUDIO
    TITLE "0:"
    INDEX 01 01:02:04
  TRACK 41 AUDIO
    TITLE "5:cjc172_6350"
    INDEX 01 01:02:13
  TRACK 42 AUDIO
    TITLE "0:"
    INDEX 01 01:06:72
  TRACK 43 AUDIO
    TITLE "3:cjc172_6351"
    INDEX 01 01:07:44
  TRACK 44 AUDIO
    TITLE "0:"
    INDEX 01 01:08:65
  TRACK 45 AUDIO
    TITLE "4:cjc172_6352"
    INDEX 01 01:09:02
  TRACK 46 AUDIO
    TITLE "0:"
    INDEX 01 01:10:19
  TRACK 47 AUDIO
    TITLE "5:cjc172_6353"
    INDEX 01 01:10:31
  TRACK 48 AUDIO
    TITLE "0:"
    INDEX 01 01:14:71
  TRACK 49 AUDIO
    TITLE "3:cjc172_6354"
    INDEX 01 01:15:43
  TRACK 50 AUDIO
    TITLE "0:"
    INDEX 01 01:16:68
  TRACK 51 AUDIO
    TITLE "4:cjc172_6355"
    INDEX 01 01:17:05
  TRACK 52 AUDIO
    TITLE "0:"
    INDEX 01 01:19:71
  TRACK 53 AUDIO
    TITLE "5:cjc172_6356"
    INDEX 01 01:20:03
  TRACK 54 AUDIO
    TITLE "0:"
    INDEX 01 01:24:33
  TRACK 55 AUDIO
    TITLE "3:cjc172_6357"
    INDEX 01 01:25:05
  TRACK 56 AUDIO
    TITLE "0:"
    INDEX 01 01:26:14
  TRACK 57 AUDIO
    TITLE "4:cjc172_6358"
    INDEX 01 01:26:26
  TRACK 58 AUDIO
    TITLE "0:"
    INDEX 01 01:29:38
  TRACK 59 AUDIO
    TITLE "5:cjc172_6359"
    INDEX 01 01:29:45
  TRACK 60 AUDIO
    TITLE "0:"
    INDEX 01 01:34:68
